<svg width="48" height="38" viewBox="0 0 48 38" fill="none" xmlns="http://www.w3.org/2000/svg">
<path d="M30 19C30 27.2843 23.2843 34 15 34C6.71573 34 0 27.2843 0 19C0 10.7157 6.71573 4 15 4C23.2843 4 30 10.7157 30 19ZM5.86365 19C5.86365 24.0459 9.95413 28.1363 15 28.1363C20.0459 28.1363 24.1363 24.0459 24.1363 19C24.1363 13.9541 20.0459 9.86365 15 9.86365C9.95413 9.86365 5.86365 13.9541 5.86365 19Z" fill="#055FFC"/>
<g filter="url(#filter0_f_188_5904)">
<path d="M18.1968 33.6552C21.4425 32.9472 24.3613 31.1817 26.4954 28.6358C28.6294 26.0899 29.858 22.9076 29.9883 19.5881C30.1186 16.2687 29.1432 12.9998 27.2153 10.2945C25.2873 7.58916 22.5158 5.60037 19.3356 4.64014V6C21.4905 6.65064 23.7232 10.3988 24.5 13C25.1558 15.78 25.5 17 25.5 19.5C25.4117 21.7492 25.5 25.5 24.5 28C22.5 30.5 21 32 18 32.5L18.1968 33.6552Z" fill="white"/>
</g>
<defs>
<filter id="filter0_f_188_5904" x="14" y="0.640137" width="19.9999" height="37.0151" filterUnits="userSpaceOnUse" color-interpolation-filters="sRGB">
<feFlood flood-opacity="0" result="BackgroundImageFix"/>
<feBlend mode="normal" in="SourceGraphic" in2="BackgroundImageFix" result="shape"/>
<feGaussianBlur stdDeviation="2" result="effect1_foregroundBlur_188_5904"/>
</filter>
</defs>
</svg>
