<svg width="128" height="233" viewBox="0 0 128 233" fill="none" xmlns="http://www.w3.org/2000/svg">
<path opacity="0.1" d="M89.3228 223.91C84.7794 214.167 83.7154 203.289 86.3641 193.663C89.0125 184.037 95.1578 176.45 103.45 172.566C114.418 167.425 122.539 157.379 126.027 144.638C129.515 131.897 128.084 117.506 122.05 104.628L103.75 65.5737C97.7154 52.696 87.5716 42.3872 75.549 36.9145C63.5265 31.442 50.6101 31.254 39.6404 36.3915C35.5293 38.3191 31.0129 39.2771 26.3486 39.2106C21.6846 39.1441 16.9646 38.0546 12.4578 36.0043C7.95085 33.9537 3.74542 30.9827 0.0822232 27.2604C-3.5812 23.5383 -6.63083 19.1378 -8.89264 14.311C-11.4107 8.93731 -15.6431 4.6371 -20.6601 2.35363C-25.677 0.0701721 -31.0667 -0.00791572 -35.6437 2.13682L-100.709 32.6257C-107.151 35.6473 -111.921 41.5496 -113.97 49.0325C-116.018 56.5168 -115.178 64.9706 -111.633 72.535L-101.737 93.6546C-97.8912 101.863 -92.7062 109.346 -86.4775 115.677C-80.2492 122.007 -73.0991 127.06 -65.4358 130.549C-57.7726 134.037 -49.7462 135.891 -41.815 136.006C-33.8839 136.121 -26.2031 134.494 -19.2116 131.217L34.133 106.221L60.879 163.299C62.3558 166.448 63.29 169.815 63.6275 173.206C63.9652 176.597 63.7 179.946 62.8472 183.063C61.9943 186.179 60.5703 189.002 58.6566 191.369C56.743 193.736 54.3774 195.601 51.6945 196.858L-10.1686 225.846C-16.6093 228.867 -21.3788 234.767 -23.4279 242.249C-25.4772 249.732 -24.6381 258.184 -21.0961 265.748C-17.5515 273.312 -11.5933 279.368 -4.5313 282.583C2.5309 285.798 10.1182 285.909 16.5622 282.892L81.573 252.429C83.8515 251.36 85.8598 249.773 87.4832 247.76C89.1066 245.747 90.3128 243.347 91.0327 240.698C91.7528 238.048 91.9723 235.202 91.6788 232.321C91.3854 229.44 90.5846 226.582 89.3228 223.91Z" fill="#10849C"/>
</svg>
