<svg width="145" height="222" viewBox="0 0 145 222" fill="none" xmlns="http://www.w3.org/2000/svg">
<path opacity="0.1" d="M63.03 -25.1013C64.9962 -14.5321 63.3099 -3.73287 58.3413 4.9267C53.3729 13.5862 45.5278 19.3982 36.5283 21.0876C24.624 23.3275 14.2517 31.0273 7.69255 42.4934C1.13329 53.9592 -1.07546 68.2522 1.55176 82.2288L9.51939 124.616C12.1466 138.592 19.3946 151.108 29.6697 159.409C39.9446 167.711 52.4048 171.118 64.3099 168.883C68.7721 168.043 73.3847 168.243 77.8846 169.473C82.3842 170.702 86.6826 172.935 90.5346 176.046C94.3867 179.157 97.7169 183.084 100.334 187.604C102.952 192.123 104.806 197.145 105.791 202.384C106.887 208.216 109.912 213.437 114.2 216.901C118.488 220.365 123.687 221.787 128.654 220.853L199.272 207.578C206.265 206.261 212.357 201.737 216.21 195.003C220.063 188.267 221.36 179.871 219.816 171.662L215.508 148.74C213.834 139.831 210.682 131.29 206.232 123.605C201.781 115.92 196.12 109.241 189.57 103.949C183.021 98.6579 175.712 94.8579 168.061 92.7662C160.41 90.6745 152.566 90.332 144.978 91.7584L87.081 102.641L75.4363 40.6929C74.7928 37.2744 74.7289 33.7814 75.2489 30.4134C75.7688 27.0452 76.862 23.8684 78.466 21.0635C80.0702 18.2589 82.1539 15.8814 84.598 14.0672C87.0422 12.2531 89.7987 11.0376 92.7104 10.4903L159.853 -2.13071C166.844 -3.44735 172.935 -7.96931 176.788 -14.7028C180.641 -21.4362 181.939 -29.8301 180.398 -38.0387C178.855 -46.2487 174.598 -53.6004 168.562 -58.4772C162.527 -63.3539 155.208 -65.3564 148.215 -64.0442L77.6561 -50.7811C75.1828 -50.315 72.8419 -49.2803 70.7672 -47.7365C68.6925 -46.1926 66.9253 -44.1699 65.5666 -41.7843C64.2076 -39.3986 63.2841 -36.6969 62.849 -33.8341C62.4136 -30.9713 62.4754 -28.0036 63.03 -25.1013Z" fill="#10849C"/>
</svg>
