<svg width="124" height="123" viewBox="0 0 124 123" fill="none" xmlns="http://www.w3.org/2000/svg">
<path d="M59.2608 118.825C60.5546 120.797 63.4454 120.797 64.7392 118.825C65.8935 117.066 68.383 116.835 69.8408 118.352C71.475 120.053 74.3166 119.522 75.226 117.346C76.0374 115.404 78.4422 114.72 80.1539 115.944C82.0727 117.315 84.7684 116.271 85.2625 113.964C85.7032 111.907 87.9414 110.793 89.8488 111.681C91.9869 112.676 94.4448 111.154 94.5067 108.797C94.5619 106.693 96.5572 105.187 98.5953 105.709C100.88 106.295 103.016 104.347 102.644 102.018C102.312 99.9406 103.996 98.0929 106.096 98.232C108.449 98.3879 110.191 96.0809 109.397 93.8601C108.689 91.8789 110.005 89.7531 112.094 89.504C114.436 89.2248 115.725 86.637 114.536 84.5999C113.476 82.7825 114.379 80.4511 116.387 79.8224C118.638 79.1176 119.429 76.3371 117.886 74.5531C116.51 72.9615 116.97 70.5038 118.828 69.5168C120.911 68.4105 121.177 65.532 119.333 64.0617C117.688 62.7501 117.688 60.2499 119.333 58.9383C121.177 57.468 120.911 54.5895 118.828 53.4832C116.97 52.4962 116.51 50.0385 117.886 48.4469C119.429 46.6629 118.638 43.8824 116.387 43.1776C114.379 42.5489 113.476 40.2175 114.536 38.4001C115.725 36.363 114.436 33.7752 112.094 33.496C110.005 33.2469 108.689 31.1211 109.397 29.1399C110.191 26.9191 108.449 24.6121 106.096 24.768C103.996 24.9071 102.312 23.0594 102.644 20.9817C103.016 18.6528 100.88 16.7052 98.5953 17.2909C96.5572 17.8133 94.5619 16.3066 94.5067 14.2033C94.4448 11.8456 91.9869 10.3238 89.8488 11.3193C87.9414 12.2073 85.7032 11.0929 85.2625 9.03554C84.7684 6.72936 82.0727 5.68507 80.1539 7.05648C78.4422 8.27991 76.0374 7.5957 75.226 5.65437C74.3166 3.47826 71.475 2.94707 69.8408 4.64771C68.383 6.16485 65.8935 5.93416 64.7392 4.17498C63.4454 2.20303 60.5546 2.20303 59.2608 4.17498C58.1065 5.93416 55.617 6.16485 54.1592 4.64771C52.525 2.94707 49.6834 3.47826 48.774 5.65438C47.9626 7.5957 45.5578 8.27991 43.8461 7.05648C41.9273 5.68507 39.2316 6.72936 38.7375 9.03554C38.2968 11.0929 36.0586 12.2073 34.1512 11.3193C32.0131 10.3238 29.5552 11.8456 29.4933 14.2033C29.4381 16.3066 27.4428 17.8133 25.4047 17.2909C23.1201 16.7052 20.9837 18.6528 21.3561 20.9817C21.6882 23.0594 20.0038 24.9071 17.9044 24.768C15.5511 24.6121 13.8089 26.9191 14.6029 29.1399C15.3112 31.1211 13.995 33.2469 11.9057 33.496C9.56381 33.7752 8.27524 36.363 9.46376 38.4001C10.524 40.2175 9.62084 42.5489 7.61295 43.1776C5.36221 43.8824 4.57109 46.6629 6.11369 48.4469C7.48985 50.0385 7.03043 52.4962 5.17226 53.4832C3.08934 54.5895 2.82261 57.468 4.66677 58.9383C6.31195 60.2499 6.31195 62.7501 4.66677 64.0617C2.82261 65.532 3.08934 68.4105 5.17226 69.5168C7.03043 70.5038 7.48985 72.9615 6.11369 74.5531C4.57109 76.3371 5.36221 79.1176 7.61295 79.8224C9.62084 80.4511 10.524 82.7825 9.46376 84.5999C8.27524 86.637 9.56381 89.2248 11.9057 89.504C13.995 89.7531 15.3112 91.8789 14.6029 93.8601C13.8089 96.0809 15.5511 98.3879 17.9044 98.232C20.0038 98.0929 21.6882 99.9406 21.3561 102.018C20.9837 104.347 23.1201 106.295 25.4047 105.709C27.4428 105.187 29.4381 106.693 29.4933 108.797C29.5552 111.154 32.0131 112.676 34.1512 111.681C36.0586 110.793 38.2968 111.907 38.7375 113.964C39.2316 116.271 41.9273 117.315 43.8461 115.944C45.5578 114.72 47.9626 115.404 48.774 117.346C49.6834 119.522 52.525 120.053 54.1592 118.352C55.617 116.835 58.1065 117.066 59.2608 118.825Z" fill="#109C48"/>
<path d="M48.4297 62.9584L57.7806 71.9747L76.4804 53.9421" stroke="#F1F9F4" stroke-width="5.18438" stroke-linecap="round" stroke-linejoin="round"/>
</svg>
